<svg width="120" height="120" viewBox="0 0 120 120" fill="none" xmlns="http://www.w3.org/2000/svg">
<path d="M106.667 106.667H13.3333V13.3333H106.667M106.667 0H13.3333C9.79711 0 6.40573 1.40476 3.90524 3.90524C1.40476 6.40573 0 9.79711 0 13.3333V106.667C0 110.203 1.40476 113.594 3.90524 116.095C6.40573 118.595 9.79711 120 13.3333 120H106.667C110.203 120 113.594 118.595 116.095 116.095C118.595 113.594 120 110.203 120 106.667V13.3333C120 9.79711 118.595 6.40573 116.095 3.90524C113.594 1.40476 110.203 0 106.667 0ZM73.0667 61.9333L54.7333 85.5333L41.6667 69.8L23.3333 93.3333H96.6667L73.0667 61.9333Z" fill="#718096"/>
</svg>
