<svg width="36" height="36" viewBox="0 0 36 36" fill="none" xmlns="http://www.w3.org/2000/svg">
<path d="M31.5 7.5V28.5C31.5 30.15 30.15 31.5 28.5 31.5H7.5C5.85 31.5 4.5 30.15 4.5 28.5V7.5C4.5 5.85 5.85 4.5 7.5 4.5H28.5C30.15 4.5 31.5 5.85 31.5 7.5ZM28.5 7.5H7.5V28.5H28.5V7.5Z" fill="#EB1A52"/>
<path d="M25.5 22.5H16.5V25.5H25.5V22.5Z" fill="#1078EF"/>
<path d="M10.5 10.5H13.5V13.5H10.5V10.5Z" fill="#1078EF"/>
<path d="M25.5 19.5H16.5V16.5H25.5V19.5Z" fill="#1078EF"/>
<path d="M25.5 13.5H16.5V10.5H25.5V13.5Z" fill="#1078EF"/>
<path d="M10.5 16.5H13.5V19.5H10.5V16.5Z" fill="#1078EF"/>
<path d="M10.5 22.5H13.5V25.5H10.5V22.5Z" fill="#1078EF"/>
</svg>
