<svg width="24" height="24" viewBox="0 0 24 24" fill="none" xmlns="http://www.w3.org/2000/svg">
<mask id="path-1-inside-1_2371_2254" fill="white">
<path fill-rule="evenodd" clip-rule="evenodd" d="M5.25 8.25C5.25 4.52208 8.27208 1.5 12 1.5C15.7279 1.5 18.75 4.52208 18.75 8.25V15.312C20.0744 15.8907 21 17.2123 21 18.75H15.675C15.3275 20.4617 13.8142 21.75 12 21.75C10.1858 21.75 8.67247 20.4617 8.32501 18.75H3C3 17.2123 3.92557 15.8907 5.25 15.312V8.25Z"/>
</mask>
<path d="M18.75 15.312H17.75V15.9664L18.3496 16.2284L18.75 15.312ZM21 18.75V19.75H22V18.75H21ZM15.675 18.75V17.75H14.8576L14.695 18.5511L15.675 18.75ZM8.32501 18.75L9.30503 18.5511L9.14242 17.75H8.32501V18.75ZM3 18.75H2V19.75H3V18.75ZM5.25 15.312L5.65037 16.2284L6.25 15.9664V15.312H5.25ZM12 0.5C7.71979 0.5 4.25 3.96979 4.25 8.25H6.25C6.25 5.07436 8.82436 2.5 12 2.5V0.5ZM19.75 8.25C19.75 3.96979 16.2802 0.5 12 0.5V2.5C15.1756 2.5 17.75 5.07436 17.75 8.25H19.75ZM19.75 15.312V8.25H17.75V15.312H19.75ZM18.3496 16.2284C19.323 16.6537 20 17.6239 20 18.75H22C22 16.8006 20.8259 15.1277 19.1504 14.3957L18.3496 16.2284ZM21 17.75H15.675V19.75H21V17.75ZM12 22.75C14.2992 22.75 16.2148 21.1175 16.655 18.9489L14.695 18.5511C14.4403 19.8059 13.3293 20.75 12 20.75V22.75ZM7.345 18.9489C7.78519 21.1175 9.70083 22.75 12 22.75V20.75C10.6707 20.75 9.55974 19.8059 9.30503 18.5511L7.345 18.9489ZM8.32501 17.75H3V19.75H8.32501V17.75ZM4 18.75C4 17.6239 4.67703 16.6537 5.65037 16.2284L4.84963 14.3957C3.17411 15.1277 2 16.8006 2 18.75H4ZM4.25 8.25V15.312H6.25V8.25H4.25Z" fill="#ECD20E" mask="url(#path-1-inside-1_2371_2254)"/>
</svg>
