<svg width="16" height="16" viewBox="0 0 16 16" fill="none" xmlns="http://www.w3.org/2000/svg">
<g id="Icon/Action/Update" clip-path="url(#clip0_586_5248)">
<path id="Vector" d="M8 0.000200321C8.73438 0.000200321 9.44271 0.0939503 10.125 0.28145C10.8073 0.46895 11.4453 0.73718 12.0391 1.08614C12.6328 1.4351 13.1719 1.85176 13.6562 2.33614C14.1406 2.82051 14.5573 3.36218 14.9062 3.96114C15.2552 4.5601 15.5234 5.19812 15.7109 5.8752C15.8984 6.55228 15.9948 7.26062 16 8.0002C16 8.73458 15.9062 9.44291 15.7188 10.1252C15.5312 10.8075 15.263 11.4455 14.9141 12.0393C14.5651 12.633 14.1484 13.1721 13.6641 13.6565C13.1797 14.1408 12.638 14.5575 12.0391 14.9065C11.4401 15.2554 10.8021 15.5236 10.125 15.7111C9.44792 15.8986 8.73958 15.995 8 16.0002C7.10417 16.0002 6.24479 15.857 5.42188 15.5705C4.59896 15.2841 3.84635 14.883 3.16406 14.3674C2.48177 13.8518 1.89323 13.232 1.39844 12.508C0.903646 11.7841 0.536458 10.9924 0.296875 10.133L1.25781 9.86739C1.46615 10.6226 1.78646 11.3127 2.21875 11.9377C2.65104 12.5627 3.16667 13.1044 3.76562 13.5627C4.36458 14.021 5.02344 14.3726 5.74219 14.6174C6.46094 14.8622 7.21354 14.9898 8 15.0002C8.64062 15.0002 9.25781 14.9169 9.85156 14.7502C10.4453 14.5835 11.0026 14.3492 11.5234 14.0471C12.0443 13.745 12.5182 13.3778 12.9453 12.9455C13.3724 12.5132 13.737 12.0419 14.0391 11.5315C14.3411 11.021 14.5781 10.4637 14.75 9.85958C14.9219 9.25541 15.0052 8.63562 15 8.0002C15 7.35958 14.9167 6.74239 14.75 6.14864C14.5833 5.55489 14.349 4.9976 14.0469 4.47676C13.7448 3.95593 13.3776 3.48197 12.9453 3.05489C12.513 2.6278 12.0417 2.26322 11.5312 1.96114C11.0208 1.65905 10.4635 1.42208 9.85938 1.2502C9.25521 1.07833 8.63542 0.994992 8 1.0002C7.32812 1.0002 6.67448 1.09395 6.03906 1.28145C5.40365 1.46895 4.8125 1.73718 4.26562 2.08614C3.71875 2.4351 3.22135 2.85437 2.77344 3.34395C2.32552 3.83353 1.96094 4.38562 1.67969 5.0002H4V6.0002H0V2.0002H1V4.14083C1.34896 3.5002 1.77344 2.92468 2.27344 2.41426C2.77344 1.90385 3.32552 1.47155 3.92969 1.11739C4.53385 0.763221 5.18229 0.48718 5.875 0.289263C6.56771 0.0913462 7.27604 -0.00500801 8 0.000200321Z" fill="#C3002F"/>
</g>
<defs>
<clipPath id="clip0_586_5248">
<rect width="16" height="16" fill="white"/>
</clipPath>
</defs>
</svg>
